<svg xmlns="http://www.w3.org/2000/svg" width="47" height="47" viewBox="0 0 47 47">
  <g id="Group_16684" data-name="Group 16684" transform="translate(-82 -280)">
    <g id="Group_11121" data-name="Group 11121" transform="translate(12 -320)">
      <g id="Group_10592" data-name="Group 10592" transform="translate(-2 112)">
        <g id="Group_10566" data-name="Group 10566" transform="translate(-55 22)">
          <g id="Group_7371" data-name="Group 7371" transform="translate(-9 332)">
            <g id="Ellipse_546" data-name="Ellipse 546" transform="translate(136 134)" fill="none" stroke="#e1ad01" stroke-width="3">
              <circle cx="23.5" cy="23.5" r="23.5" stroke="none"/>
              <circle cx="23.5" cy="23.5" r="22" fill="none"/>
            </g>
          </g>
        </g>
      </g>
      <g id="Group_11120" data-name="Group 11120" transform="translate(-4.014 -0.361)">
        <path id="Subtraction_71" data-name="Subtraction 71" d="M-107.392-2867.038H-122.88a1.107,1.107,0,0,1-1.106-1.106v-21.389a1.107,1.107,0,0,1,1.106-1.106h9.219v6.269a1.108,1.108,0,0,0,1.107,1.106h6.269v15.119A1.107,1.107,0,0,1-107.392-2867.038Zm-11.28-6.211a.394.394,0,0,0-.393.393v.786a.394.394,0,0,0,.393.393h7.071a.394.394,0,0,0,.393-.393v-.786a.394.394,0,0,0-.393-.393Zm0-4.125a.394.394,0,0,0-.393.393v.786a.393.393,0,0,0,.393.392h7.071a.393.393,0,0,0,.393-.392v-.786a.394.394,0,0,0-.393-.393Zm0-4.174a.393.393,0,0,0-.393.392v.786a.394.394,0,0,0,.393.393h7.071a.394.394,0,0,0,.393-.393v-.786a.393.393,0,0,0-.393-.392Zm12.386-3.19h-5.9v-5.9h.282a1.1,1.1,0,0,1,.784.323l4.513,4.517a1.1,1.1,0,0,1,.322.78v.28Z" transform="translate(211.65 3500.699)" fill="#e1ad01"/>
      </g>
    </g>
    <g id="Group_11145" data-name="Group 11145" transform="translate(104.5 303.5)">
      <g id="Component_32_47" data-name="Component 32 – 47">
        <g id="Ellipse_659" data-name="Ellipse 659" fill="#e1ad01" stroke="#fff" stroke-width="1">
          <circle cx="7.103" cy="7.103" r="7.103" stroke="none"/>
          <circle cx="7.103" cy="7.103" r="6.603" fill="none"/>
        </g>
      </g>
      <path id="check-solid_4_" data-name="check-solid (4)" d="M3.144,71.865.136,68.857a.463.463,0,0,1,0-.655l.655-.654a.463.463,0,0,1,.655,0l2.027,2.026,4.341-4.341a.463.463,0,0,1,.655,0l.655.655a.463.463,0,0,1,0,.655L3.8,71.865a.463.463,0,0,1-.655,0Z" transform="translate(2.201 -61.447)" fill="#fff"/>
    </g>
  </g>
</svg>
